# xmcd CD database file
#
# Track frame offsets:
#	150
#	12990
#	38673
#	55217
#	69192
#	84320
#	102542
#	115852
#	128887
#	151574
#	167775
#	194367
#	218359
#	237068
#	252977
#	264202
#	284077
#	301852
#
# Disc length: 4328 seconds
#
# Revision: 0
# Processed by: cddbd v1.5.1PL2 Copyright (c) Steve Scherf et al.
# Submitted via: Feurio! 1.68 - http://www.feurio.com
#
DISCID=e610e612
DTITLE=Various Artist - Blues Sessions CD 1 von 2
DYEAR=1900
DGENRE=Blues
TTITLE0=Fathers and Sons - All Aboard
TTITLE1=Fathers and Sons - Mean Disposition
TTITLE2=Fathers and Sons - Blow Wind Blow
TTITLE3=Fathers and Sons - Can't Lose What You Ain't Never Had
TTITLE4=Fathers and Sons - Walkin' Thru The Park
TTITLE5=Bo Diddley - Don't Want No Lyin' Woman
TTITLE6=Bo Diddley - Bo Diddley
TTITLE7=Bo Diddley - Going Down
TTITLE8=Bo Diddley - Make A Hit Record
TTITLE9=Bo Diddley - Bo - Jan
TTITLE10=Muddy Waters and Howlin Wolf - Goin' Down Slow
TTITLE11=Muddy Waters and Howlin Wolf - The Killin Floor
TTITLE12=Muddy Waters and Howlin Wolf - I Want To Have A Word With You
TTITLE13=Muddy Waters - Blind Man Blues
TTITLE14=Muddy Waters - Key To The Highway
TTITLE15=Muddy Waters - Young Fashioned Ways
TTITLE16=Muddy Waters - I'm Gonna Move The Outskirts Of Town
TTITLE17=Muddy Waters - Who's Gonna Be Your Sweet Man When I'm Gone
EXTD=
EXTT0=
EXTT1=
EXTT2=
EXTT3=
EXTT4=
EXTT5=
EXTT6=
EXTT7=
EXTT8=
EXTT9=
EXTT10=
EXTT11=
EXTT12=
EXTT13=
EXTT14=
EXTT15=
EXTT16=
EXTT17=
PLAYORDER=
